<svg id="chart_linear" data-name="chart/linear" xmlns="http://www.w3.org/2000/svg" width="24" height="24" viewBox="0 0 24 24">
  <g id="vuesax_linear_chart" data-name="vuesax/linear/chart">
    <g id="chart">
      <path id="Vector" d="M0,0H18" transform="translate(3 22)" fill="none" stroke="#fff" stroke-linecap="round" stroke-linejoin="round" stroke-width="1.5"/>
      <g id="Group">
        <path id="Vector-2" data-name="Vector" d="M2.6,0H1A1,1,0,0,0,0,1V9.62a1,1,0,0,0,1,1H2.6a1,1,0,0,0,1-1V1A1,1,0,0,0,2.6,0Z" transform="translate(3 8.38)" fill="none" stroke="#fff" stroke-linecap="round" stroke-linejoin="round" stroke-width="1.5"/>
        <path id="Vector-3" data-name="Vector" d="M2.6,0H1A1,1,0,0,0,0,1V12.81a1,1,0,0,0,1,1H2.6a1,1,0,0,0,1-1V1A1,1,0,0,0,2.6,0Z" transform="translate(10.2 5.19)" fill="none" stroke="#fff" stroke-linecap="round" stroke-linejoin="round" stroke-width="1.5"/>
        <path id="Vector-4" data-name="Vector" d="M2.6,0H1A1,1,0,0,0,0,1V16a1,1,0,0,0,1,1H2.6a1,1,0,0,0,1-1V1A1,1,0,0,0,2.6,0Z" transform="translate(17.4 2)" fill="none" stroke="#fff" stroke-linecap="round" stroke-linejoin="round" stroke-width="1.5"/>
      </g>
      <path id="Vector-5" data-name="Vector" d="M0,0H24V24H0Z" fill="none" opacity="0"/>
    </g>
  </g>
</svg>
