<svg xmlns="http://www.w3.org/2000/svg" width="24.567" height="24.486" viewBox="0 0 24.567 24.486">
  <g id="CIRCLE_2_" transform="translate(-2.452 -2.536)">
    <g id="Group_6888" data-name="Group 6888">
      <path id="Path_7170" data-name="Path 7170" d="M14.736,26.772a11.905,11.905,0,0,1-3.094-.407A12,12,0,0,1,7.407,5.294,12,12,0,0,1,22.128,24.256a12.091,12.091,0,0,1-7.391,2.517Zm.058-22.14a10.149,10.149,0,0,0-2.672,19.95,10.075,10.075,0,0,0,2.614.343h0A10.154,10.154,0,0,0,19.3,5.687a10.131,10.131,0,0,0-4.51-1.054Z" fill="#292d32" stroke="#fff" stroke-width="0.5"/>
    </g>
  </g>
</svg>
