<svg id="document-copy_linear" data-name="document-copy/linear" xmlns="http://www.w3.org/2000/svg" width="24" height="24" viewBox="0 0 24 24">
  <g id="vuesax_linear_document-copy" data-name="vuesax/linear/document-copy">
    <path id="Vector" d="M15,6.4v3c0,4-1.6,5.6-5.6,5.6H5.6C1.6,15,0,13.4,0,9.4V5.6C0,1.6,1.6,0,5.6,0h3" transform="translate(2 7)" fill="none" stroke="#fff" stroke-linecap="round" stroke-linejoin="round" stroke-width="1.5"/>
    <path id="Vector-2" data-name="Vector" d="M6.4,6.4H3.2C.8,6.4,0,5.6,0,3.2V0Z" transform="translate(10.6 7)" fill="none" stroke="#fff" stroke-linecap="round" stroke-linejoin="round" stroke-width="1.5"/>
    <path id="Vector-3" data-name="Vector" d="M0,0H4" transform="translate(11.6 2)" fill="none" stroke="#fff" stroke-linecap="round" stroke-linejoin="round" stroke-width="1.5"/>
    <path id="Vector-4" data-name="Vector" d="M0,3A3,3,0,0,1,3,0H5.62" transform="translate(7 2)" fill="none" stroke="#fff" stroke-linecap="round" stroke-linejoin="round" stroke-width="1.5"/>
    <path id="Vector-5" data-name="Vector" d="M2.81,0V6.19A2.812,2.812,0,0,1,0,9" transform="translate(19.19 8)" fill="none" stroke="#fff" stroke-linecap="round" stroke-linejoin="round" stroke-width="1.5"/>
    <path id="Vector-6" data-name="Vector" d="M6,6H3C.75,6,0,5.25,0,3V0Z" transform="translate(16 2)" fill="none" stroke="#fff" stroke-linecap="round" stroke-linejoin="round" stroke-width="1.5"/>
    <path id="Vector-7" data-name="Vector" d="M0,0H24V24H0Z" fill="none" opacity="0"/>
  </g>
</svg>
