<svg id="Component_1_1" data-name="Component 1 – 1" xmlns="http://www.w3.org/2000/svg" width="24" height="24" viewBox="0 0 24 24">
  <rect id="Rectangle_1" data-name="Rectangle 1" width="24" height="24" rx="4" fill="#f5f5f5"/>
  <path id="filter" d="M2.847,5.64a.6.6,0,0,0,0,1.195Zm0,7.965a.6.6,0,0,0,0,1.195ZM7.627,14.8a.6.6,0,1,0,0-1.195Zm9.558,0a.6.6,0,0,0,0-1.195ZM12.406,5.64a.6.6,0,1,0,0,1.195Zm4.779,1.195a.6.6,0,0,0,0-1.195Zm-14.337,0h2.39V5.64H2.847Zm0,7.965H7.627V13.6H2.847Zm11.948,0h2.39V13.6H14.8Zm-2.39-7.965h4.779V5.64H12.406ZM14.2,14.2a1.792,1.792,0,0,1-1.792,1.792v1.195A2.987,2.987,0,0,0,15.393,14.2Zm-1.792,1.792A1.792,1.792,0,0,1,10.614,14.2H9.419a2.987,2.987,0,0,0,2.987,2.987ZM10.614,14.2a1.792,1.792,0,0,1,1.792-1.792V11.215A2.987,2.987,0,0,0,9.419,14.2Zm1.792-1.792A1.792,1.792,0,0,1,14.2,14.2h1.195a2.987,2.987,0,0,0-2.987-2.987ZM9.419,6.237A1.792,1.792,0,0,1,7.627,8.029V9.224a2.987,2.987,0,0,0,2.987-2.987ZM7.627,8.029A1.792,1.792,0,0,1,5.834,6.237H4.64A2.987,2.987,0,0,0,7.627,9.224ZM5.834,6.237A1.792,1.792,0,0,1,7.627,4.445V3.25A2.987,2.987,0,0,0,4.64,6.237ZM7.627,4.445A1.792,1.792,0,0,1,9.419,6.237h1.195A2.987,2.987,0,0,0,7.627,3.25Z" transform="translate(1.75 1.75)" fill="#707070"/>
</svg>
