<svg xmlns="http://www.w3.org/2000/svg" xmlns:xlink="http://www.w3.org/1999/xlink" width="23" height="17" viewBox="0 0 23 17">
  <defs>
    <clipPath id="clip-path">
      <rect id="Rectangle_4789" data-name="Rectangle 4789" width="23" height="17" transform="translate(7279 -12847)" fill="#fff" stroke="#707070" stroke-width="1"/>
    </clipPath>
  </defs>
  <g id="Flag" transform="translate(-7279 12847)" clip-path="url(#clip-path)">
    <g id="saudi-arabia_1_" data-name="saudi-arabia (1)" transform="translate(7278.393 -12847)">
      <path id="Path_6953" data-name="Path 6953" d="M1.647,4.377H26.281v17H1.647Z" transform="translate(-1.647 -4.377)" fill="#128807"/>
      <g id="Group_6203" data-name="Group 6203" transform="translate(4.937 3.782)">
        <path id="Path_6954" data-name="Path 6954" d="M17.151,8.992c.22.247.446.51.672.784.048.559.06,1.072.109,1.632-.007.24-.088.558-.164.588a.191.191,0,0,1-.2-.007,2.17,2.17,0,0,1-.284-.346.183.183,0,0,0-.277,0,3.389,3.389,0,0,0-.487.837c-.04.058-.153.107-.278,0a1.055,1.055,0,0,1-.168-.829l0,.014a.834.834,0,0,0-.094.877.714.714,0,0,0,.351.364.261.261,0,0,0,.366-.036c.167-.157.169-.56.247-.64a.151.151,0,0,1,.259-.056.625.625,0,0,0,.237.187.427.427,0,0,0,.524.034.57.57,0,0,0,.279-.311,9.937,9.937,0,0,0,.022-1.752q.176.226.348.461a10.407,10.407,0,0,1,.057,1.435c-.012.092.352-.275.35-.448,0-.152,0-.29,0-.418.177.257.347.518.509.783.1-.048.066-.565,0-.636-.169-.259-.386-.538-.553-.755-.033-.273-.078-.6-.1-.694-.032-.154-.064-.385-.112-.568a1.76,1.76,0,0,1-.041-.321c.02-.051.094,0,.131-.057a1.932,1.932,0,0,0-.315-.8c-.045-.074-.126-.048-.226.072-.093.079-.059.26-.023.432.092.439.175.886.24,1.331-.121-.164-.268-.361-.413-.552,0-.018-.019-.086-.019-.087s-.02-.359-.037-.443c0-.034-.012-.044.027-.039a.232.232,0,0,0,.073.044c.042.007.078-.057.053-.117L17.831,8.3a.109.109,0,0,0-.053-.031c-.02,0-.042.006-.067.039a.247.247,0,0,0-.1.194c.012.155.042.313.053.467,0,.021.008.041.012.062-.018-.021-.034-.038-.043-.046-.33-.317.152-.052-.063-.3a2.482,2.482,0,0,0-.39-.349c-.078-.046-.125-.134-.151.016a2.663,2.663,0,0,0-.011.394.509.509,0,0,0,.129.245Z" transform="translate(-5.205 -8.159)" fill="#fff"/>
        <path id="Path_6955" data-name="Path 6955" d="M9.621,11.317c0,.057.173.127.184.259.025.055-.038.229.015.245s.116-.121.141-.25c.014-.071-.061-.318-.188-.363a.226.226,0,0,0-.06,0c-.061,0-.116.034-.092.113Z" transform="translate(-5.813 -8.159)" fill="#fff"/>
        <path id="Path_6956" data-name="Path 6956" d="M17.6,10.36a.028.028,0,0,0-.014,0s-.753.489-.772.506c-.075.061-.037.274,0,.249a3.025,3.025,0,0,0,.8-.5c.033,0,.049-.241-.012-.251Z" transform="translate(-5.12 -8.159)" fill="#fff"/>
        <path id="Path_6957" data-name="Path 6957" d="M18.805,9.246c.027.074-.04.313.015.336s.122-.165.148-.341c.015-.1-.064-.434-.2-.494a.164.164,0,0,0-.032,0c-.076,0-.159.05-.126.153-.019.056.162.247.192.352Z" transform="translate(-4.942 -8.159)" fill="#fff"/>
        <path id="Path_6958" data-name="Path 6958" d="M17.189,10.365c0-.14.018-.325.026-.44,0-.044.015-.091.06-.1s.125.042.126,0a.557.557,0,0,0-.083-.281.159.159,0,0,0-.122-.061.179.179,0,0,0-.186.143c0,.059.029.091.023.144-.008.03-.043.05-.125.015.013-.011-.053-.1-.053-.1a.221.221,0,0,0-.205.035.263.263,0,0,0-.019.226,1.067,1.067,0,0,0,.557.421Z" transform="translate(-5.135 -8.159)" fill="#fff"/>
        <path id="Path_6959" data-name="Path 6959" d="M14.744,11.275h0v0a.035.035,0,0,0,0-.011l-.072-.038-1.412-.006a.163.163,0,0,1-.038-.018l0,0h0v0h0v0a.106.106,0,0,1,.044-.024c.337-.042.936-.131.976-.656-.006-.274-.128-.453-.5-.5a.466.466,0,0,0-.432.52c-.013.071.026.21-.053.225-.519.043-1.085.34-1.1.552h-.023a.121.121,0,0,1-.07-.131,2.376,2.376,0,0,0-.356-1.1c-.073-.067-.105-.094-.126-.1h-.01l-.006,0,0,0a.776.776,0,0,1-.077.063c-.071.073-.083.124-.079.271,0,.015.134.346.245.578a1.645,1.645,0,0,1,.093.778,2.009,2.009,0,0,1-.862.822.491.491,0,0,1-.361,0h0a.2.2,0,0,1-.1-.187h0a1.949,1.949,0,0,0,.866-.816.767.767,0,0,0,.023-.588.54.54,0,0,0-.146-.272h0c.049-.021.175.063.194.01a.835.835,0,0,0-.248-.418.224.224,0,0,0-.305-.017c-.1.053-.127.244-.077.411.056.126.207.148.315.4h0c0,.016.037.189-.017.259a3.3,3.3,0,0,1-.65.556l0,0h-.007v0c0-.01,0-.036,0-.078,0-.076.031-.249.029-.278h0c-.187.11-.249.447-.283.547a8.953,8.953,0,0,0-1.321.822c-.161.229,1.111-.264,1.259-.323l0,0c.028.028.031.126.115.215a.711.711,0,0,0,.687.2,2.144,2.144,0,0,0,.992-.752c.038-.051.1-.091.155-.052a1.592,1.592,0,0,0,1.407.673c.16-.177.083-.264.019-.3-.02-.012-.343-.127-.393-.241-.032-.106.045-.2.2-.271a7.507,7.507,0,0,0,1.3-.226.979.979,0,0,1,.143-.405.185.185,0,0,1,.071-.074Zm-1.164-.808a.035.035,0,0,1,.005-.011l0,0h0l.006-.006a.074.074,0,0,1,.036-.012.2.2,0,0,1,.11.027c.056.03.091.074.086.107,0,0,0,0,0,0l0,0v.008l-.007.008a.149.149,0,0,1-.148-.011c-.056-.029-.09-.074-.086-.107,0,0,0,0,0,0Zm-.564,1.289c-.151.047-.3.084-.3.284.02.1.016.151,0,.175l-.005.006H12.7l-.007,0h-.007a.289.289,0,0,1-.127-.045.737.737,0,0,1-.393-.527c-.005-.072.054-.134.148-.14h.016a4.825,4.825,0,0,0,.59.062c.164.01.244.127.091.176Z" transform="translate(-5.894 -8.159)" fill="#fff"/>
        <path id="Path_6960" data-name="Path 6960" d="M12.224,10.511c.163.071.55.029.456-.2,0-.021-.006-.092-.009-.112a.071.071,0,0,0-.077-.044.085.085,0,0,0-.068.063c-.006.024.012.063-.011.075s-.066.005-.064-.061a.11.11,0,0,0-.027-.057.054.054,0,0,0-.035-.008c-.023,0-.023.006-.036.024a.186.186,0,0,0-.012.055c0,.023-.012.031-.031.035s-.016,0-.033-.008-.023-.014-.023-.031a.171.171,0,0,0-.01-.058.072.072,0,0,0-.041-.019c-.089,0-.094.092-.089.127a.21.21,0,0,0,.11.218Z" transform="translate(-5.571 -8.159)" fill="#fff"/>
        <path id="Path_6961" data-name="Path 6961" d="M18.488,16.672c-.1.013-.369.038-.369.038-.315-.034-.546-.038-.9-.049.033-.038.09-.191.02-.247a.123.123,0,0,0-.084-.019h-.008l-.006-.006,0,0c-.018-.024-.028-.082-.04-.1h-.008a.2.2,0,0,0-.077.374c-2.474,0-6.271-.038-7.085-.038-.456,0-1.9-.049-1.924-.049a1.528,1.528,0,0,0,1.343.5c1.1,0,6.191-.012,7.64-.012a.432.432,0,0,0,.09.484l.006,0,.01,0h0a.154.154,0,0,0,.17-.089,10.916,10.916,0,0,0,1.112,0h0c.054.073.108.141.211.13.18-.035.323-.053.327-.387,0,0-.019-.57-.429-.535Zm-.177.61-.006,0H18.3l-.3-.008a.056.056,0,0,0,0-.016c-.028-.075-.229-.07-.277-.011l0,0,0,0,0,.006a.037.037,0,0,0,0,.008.047.047,0,0,0,0,.009,3.148,3.148,0,0,1-.46-.01c-.047-.053-.041-.148.014-.171h0c.361.016.7,0,1.061.019a.111.111,0,0,1-.008.164Z" transform="translate(-5.969 -8.159)" fill="#fff"/>
        <path id="Path_6962" data-name="Path 6962" d="M13.558,12.71a.117.117,0,0,0,.138.016,2.79,2.79,0,0,1,.477-.152c.058,0,.055-.142-.037-.148a.581.581,0,0,0-.35.1c-.073.015-.086-.025-.1-.062-.019-.091.042-.155.03-.223a.182.182,0,0,0-.089-.033.116.116,0,0,0-.054.01.968.968,0,0,0-.219.17c-.032.022-.028.041-.018.08s.069.036.119.011c.066-.008.1.031.093.1a.124.124,0,0,0,.013.13Z" transform="translate(-5.454 -8.159)" fill="#fff"/>
        <path id="Path_6963" data-name="Path 6963" d="M18.56,12.674c-.031-.032-.1-.013-.147-.018-.022,0-.1-.01-.06-.069a.388.388,0,0,0,.059-.1c.022-.044,0-.074-.077-.1a.486.486,0,0,0-.1-.008c-.029,0-.06,0-.105.008s-.065.029-.074.082c0,.081.058.077.114.109.032.037.053.071,0,.133-.053.044-.09.069-.143.113-.025.039-.04.1.036.117.141.036.467-.157.467-.161a.089.089,0,0,0,.031-.1Z" transform="translate(-5 -8.159)" fill="#fff"/>
        <path id="Path_6964" data-name="Path 6964" d="M16.255,12.291c.113,0,.244-.236.3-.471a3.621,3.621,0,0,0-.03-.71c-.009-.19-.236-1.73-.282-1.874-.055-.272.22-.036.19-.194-.1-.2-.333-.489-.408-.662-.028-.046-.031-.089-.054-.086s-.034.021-.072.066a1.362,1.362,0,0,0-.09.676A13.454,13.454,0,0,1,16.255,12.291Z" transform="translate(-5.214 -8.159)" fill="#fff"/>
        <path id="Path_6965" data-name="Path 6965" d="M19.532,9.282a1.252,1.252,0,0,1-.032-.258c.021-.05.131.005.169-.053.057-.053-.282-.448-.4-.617-.024-.042-.038-.077-.059-.075s-.036.025-.067.084a.72.72,0,0,0-.069.479,24.061,24.061,0,0,1,.335,3.107.932.932,0,0,1-.067.256,2.122,2.122,0,0,1-.327.348c-.108.074-.338.144-.414.2-.239.126-.24.271-.047.276a1.238,1.238,0,0,0,1-.434,1.347,1.347,0,0,0,.162-.562,11.979,11.979,0,0,0-.181-2.749Z" transform="translate(-4.961 -8.159)" fill="#fff"/>
        <path id="Path_6966" data-name="Path 6966" d="M17.44,11.684c.051.025.184-.125.179-.312.015-.1-.038-.451-.17-.511a.138.138,0,0,0-.048,0,.12.12,0,0,0-.105.163c-.019.056.094.253.123.357C17.446,11.452,17.385,11.662,17.44,11.684Z" transform="translate(-5.07 -8.159)" fill="#fff"/>
        <path id="Path_6967" data-name="Path 6967" d="M7.879,8.67c.163.071.467.041.454-.2,0-.021-.005-.092-.007-.112a.071.071,0,0,0-.076-.044.085.085,0,0,0-.068.063c-.006.024.011.063-.012.075s-.065,0-.063-.062a.107.107,0,0,0-.027-.056.058.058,0,0,0-.036-.008c-.023,0-.022.006-.035.024A.178.178,0,0,0,8,8.408a.035.035,0,0,1-.032.035c-.021,0-.016,0-.033-.008S7.908,8.42,7.908,8.4A.17.17,0,0,0,7.9,8.345a.071.071,0,0,0-.04-.02c-.089,0-.1.093-.09.129a.212.212,0,0,0,.111.217Z" transform="translate(-5.992 -8.159)" fill="#fff"/>
        <path id="Path_6968" data-name="Path 6968" d="M10.129,9.444a.142.142,0,0,0-.077.021.29.29,0,0,0-.11.4.23.23,0,0,0,.233.069c.141.016.225-.241.225-.241s0-.072-.163.064c-.07.012-.08-.011-.1-.047a.293.293,0,0,1,.022-.2C10.177,9.473,10.162,9.447,10.129,9.444Z" transform="translate(-5.785 -8.159)" fill="#fff"/>
        <path id="Path_6969" data-name="Path 6969" d="M15.533,12.059a3.1,3.1,0,0,1-1.049.7c-.044.045.11.238.309.238a1.162,1.162,0,0,0,.9-.654,1.1,1.1,0,0,0,.2-.5,10.013,10.013,0,0,0-.224-2.545.385.385,0,0,1,.01-.178c.021-.023.095,0,.133-.057.057-.053-.152-.492-.271-.661-.024-.042-.038-.076-.059-.074s-.036.024-.067.083a.881.881,0,0,0-.118.479c.159,1,.208,1.88.311,2.882a.367.367,0,0,1-.077.294Z" transform="translate(-5.342 -8.159)" fill="#fff"/>
        <path id="Path_6970" data-name="Path 6970" d="M7.272,10.556c-.39.006-.962.467-.977.722.412-.18.817-.354,1.235-.541-.068-.092,0-.175-.258-.181Z" transform="translate(-6.134 -8.159)" fill="#fff"/>
        <path id="Path_6971" data-name="Path 6971" d="M6.529,12.444c-.1.19-.145.06-.155-.046a2.224,2.224,0,0,1,.03-.534c.013-.075.012-.1,0-.1s-.029.027-.056.057a1.032,1.032,0,0,0-.125.991.286.286,0,0,0,.263.08.42.42,0,0,0,.175-.426C6.617,12.4,6.578,12.385,6.529,12.444Z" transform="translate(-6.148 -8.159)" fill="#fff"/>
        <path id="Path_6972" data-name="Path 6972" d="M6.566,10.248c.475.041.212-.731.384-.872.032-.069.093-.071.1.017v.656c0,.213.15.277.269.321.124-.009.207-.006.256.1q.029.568.059,1.136s.288.075.3-.639c.014-.419-.092-.771-.03-.852,0-.08.115-.084.193-.045.124.08.179.178.372.139.293-.074.47-.2.474-.409a1.645,1.645,0,0,0-.135-.586c.013-.036-.056-.128-.043-.163.053.075.132.069.151,0A.586.586,0,0,0,8.662,8.7a.188.188,0,0,0-.311.108.9.9,0,0,0,.24.632.571.571,0,0,1,.06.315.2.2,0,0,1-.241-.043s-.234-.159-.234-.195c.062-.362.013-.4-.021-.5-.024-.139-.1-.182-.155-.277a.112.112,0,0,0-.175,0,.876.876,0,0,0,.02.67c.054.144.136.234.1.234-.032.082-.1.063-.147-.031A2.141,2.141,0,0,1,7.712,9c-.021-.162-.044-.508-.16-.6a.115.115,0,0,0-.1-.048.143.143,0,0,0-.11.084,2.659,2.659,0,0,0,.011.469,4.73,4.73,0,0,1,.145.755c.011.356-.226.154-.215-.022a1.468,1.468,0,0,0-.009-.682.136.136,0,0,0-.177-.1c-.074,0-.266.186-.32.5a2.738,2.738,0,0,0-.064.306c-.026.163-.145.279-.227-.022-.071-.219-.115-.758-.235-.632-.034.421-.074,1.162.318,1.238Z" transform="translate(-6.141 -8.159)" fill="#fff"/>
        <path id="Path_6973" data-name="Path 6973" d="M6.7,8.661c.025.057-.025.239.027.256s.113-.126.138-.26c.014-.073,0-.325-.184-.376l-.03,0c-.072,0-.151.039-.12.117-.018.042.14.187.168.267Z" transform="translate(-6.112 -8.159)" fill="#fff"/>
        <path id="Path_6974" data-name="Path 6974" d="M9.374,11.938a3.016,3.016,0,0,0,.053-.948h.015a.421.421,0,0,0,.566-.045.1.1,0,0,1,.145-.012.353.353,0,0,0,.508-.132,3.793,3.793,0,0,0,.07-.57.673.673,0,0,0-.226.086.053.053,0,0,0-.016.027c-.009.054-.018.109-.027.163a.044.044,0,0,1,0,.012.055.055,0,0,1-.02.017c-.038.019-.1.008-.106-.042-.051-.209-.258-.236-.384.088-.085.063-.24.075-.256-.019.021-.217-.075-.247-.268-.144-.062-.431-.123-.842-.185-1.272.08,0,.154.051.227-.033a2.319,2.319,0,0,0-.342-.727h0l-.014-.012-.006,0-.006,0-.012,0a.068.068,0,0,0-.026,0c-.023,0-.05.015-.08.021a.214.214,0,0,0-.166.263c.119.661.2,1.165.316,1.826a.144.144,0,0,1-.144.169c-.156-.1-.195-.291-.461-.283a.5.5,0,0,0-.44.377.837.837,0,0,0,0,.432.411.411,0,0,0,.44.1c.117-.044.213-.149.255-.124h0c.025.041,0,.384-.551.65-.337.138-.605.171-.75-.08-.09-.157.006-.754-.214-.616-.651,1.531,1.526,1.744,1.769.063.016-.047.064-.1.1-.083.015.006.029.024.033.058-.051,1.522-1.684,1.626-1.961,1.148a1.354,1.354,0,0,1-.1-.515.243.243,0,0,0-.067-.164c-.066-.045-.155.073-.174.278a1.674,1.674,0,0,0-.02.369c.087,1.2,2.189.686,2.531-.307ZM8.562,10.9h0v0c-.016.019-.074.011-.115.011a.116.116,0,0,1-.1-.046c-.014-.041.029-.081.048-.112h0l.009-.009a.135.135,0,0,1,.068-.027h.016a.106.106,0,0,1,.1.066.108.108,0,0,1-.022.115Z" transform="translate(-6.081 -8.159)" fill="#fff"/>
        <path id="Path_6975" data-name="Path 6975" d="M14.758,9.749c.163.071.469.04.456-.2,0-.021-.006-.092-.009-.112a.071.071,0,0,0-.077-.044.087.087,0,0,0-.068.064c-.006.024.012.062-.011.074s-.066.005-.064-.061a.11.11,0,0,0-.027-.057.058.058,0,0,0-.036-.008c-.023,0-.022.006-.034.024a.186.186,0,0,0-.012.055c0,.023-.012.031-.031.035s-.018,0-.034-.008-.022-.014-.022-.031a.17.17,0,0,0-.011-.058.068.068,0,0,0-.04-.019c-.089,0-.094.092-.089.127a.209.209,0,0,0,.109.218Z" transform="translate(-5.326 -8.159)" fill="#fff"/>
        <path id="Path_6976" data-name="Path 6976" d="M14.868,8.822c.058.148-.044.289.016.31s.133-.153.162-.315a.472.472,0,0,0-.215-.456.188.188,0,0,0-.034,0c-.083,0-.175.046-.14.141C14.635,8.55,14.835,8.726,14.868,8.822Z" transform="translate(-5.326 -8.159)" fill="#fff"/>
        <path id="Path_6977" data-name="Path 6977" d="M9.323,9.534h0a1.892,1.892,0,0,0,.453,0h0a6.143,6.143,0,0,0,.751-.69c-.032-.025-.062-.044-.094-.069s-.031-.054,0-.081a.212.212,0,0,0,.025-.342.433.433,0,0,0-.185-.034.391.391,0,0,0-.148.037.24.24,0,0,0-.048.339c.082.036.165.111.11.153-.234.227-.841.608-.872.677v0h0v0h0Zm.92-1.013h.007a.122.122,0,0,1,.106.073c.024.048.012.094-.027.1a.116.116,0,0,1-.114-.071c-.024-.048-.012-.095.027-.1Z" transform="translate(-5.841 -8.159)" fill="#fff"/>
        <path id="Path_6978" data-name="Path 6978" d="M13.489,8.878c.273.334.535.67.788,1.017.04.258.069.51.088.761a14.027,14.027,0,0,1,.016,1.817c.113,0,.295-.167.358-.417A11.047,11.047,0,0,0,14.72,10.8c0-.085-.008-.186-.015-.292.295.439.58.9.861,1.414.1-.044.08-.569.02-.643-.225-.441-.535-.876-.634-1.043-.036-.061-.157-.229-.3-.423-.027-.277-.055-.512-.074-.583-.046-.293.132.033.107-.138a1.83,1.83,0,0,0-.445-.76c-.068-.087-.066-.105-.17.021a.513.513,0,0,0-.043.337c-.027-.036-.061-.079-.11-.133-.181-.141-.192-.149-.342-.265a.393.393,0,0,0-.206-.072.091.091,0,0,0-.086.081.785.785,0,0,0,.016.311,1.075,1.075,0,0,0,.191.265Zm.577-.02c.007.028.014.057.019.086.016.062.029.124.043.186-.06-.075-.11-.136-.131-.158C13.861,8.825,14,8.876,14.066,8.858Z" transform="translate(-5.459 -8.159)" fill="#fff"/>
        <path id="Path_6979" data-name="Path 6979" d="M10.987,9.913c.19.072.31-.258.388-.618.053-.1.094-.113.121-.061-.007.48.038.586.173.732a.468.468,0,0,0,.571.009l.235-.214a.151.151,0,0,1,.2-.009c.072.059.062.162.216.233a.509.509,0,0,0,.469-.09c.086-.135.107-.181.147-.232.062-.075.167-.041.167-.018-.01.042-.072.083-.03.158.073.05.09.018.133.007.153-.067.268-.369.268-.369.007-.113-.064-.1-.109-.081s-.062.044-.121.076c-.075.01-.22.055-.292-.046a3.754,3.754,0,0,1-.13-.414c0-.009-.1-.193-.007-.2.046.008.144.031.159-.044.048-.073-.1-.28-.206-.384A.236.236,0,0,0,13,8.333c-.084.07-.071.149-.088.223a.325.325,0,0,0,.078.3.867.867,0,0,1,.185.615.275.275,0,0,1-.243.113c-.065-.013-.17-.038-.226-.416-.042-.286.011-.686-.122-.873-.03-.071-.056-.139-.1-.134-.026,0-.057.033-.1.106a.418.418,0,0,0-.069.428,1.167,1.167,0,0,1,.077.667,1.272,1.272,0,0,1-.141.181.247.247,0,0,1-.3.037.3.3,0,0,1-.178-.229,2.865,2.865,0,0,0-.027-.737.153.153,0,0,0-.245-.045,1.627,1.627,0,0,0-.443.83c-.068.2-.142.143-.193.062-.125-.107-.134-.94-.284-.8-.241.629.139,1.318.4,1.251Z" transform="translate(-5.726 -8.159)" fill="#fff"/>
        <path id="Path_6980" data-name="Path 6980" d="M11.931,8.728a1.1,1.1,0,0,0,.1-.426c-.015-.074-.05-.11-.09-.107s-.085.046-.121.129a1.92,1.92,0,0,0-.063.391c-.025.1.112.139.174.013Z" transform="translate(-5.606 -8.159)" fill="#fff"/>
        <path id="Path_6981" data-name="Path 6981" d="M11.046,8.675a.179.179,0,0,0,.089-.118c.022-.1-.116.047-.133-.064s.057-.146.141-.247c0-.047,0-.086-.031-.087a.16.16,0,0,0-.07.025.473.473,0,0,0-.22.337c0,.088-.023.088.041.144.045.06.091.054.184.01Z" transform="translate(-5.697 -8.159)" fill="#fff"/>
      </g>
    </g>
  </g>
</svg>
