<svg id="Log_out" data-name="Log out" xmlns="http://www.w3.org/2000/svg" width="24" height="24" viewBox="0 0 24 24">
  <g id="vuesax_outline_logout" data-name="vuesax/outline/logout">
    <g id="logout">
      <g id="Vector" transform="translate(1.75 1.73)" fill="#ff6565">
        <path d="M7.01,20.54h.13c4.44,0,6.58-1.75,6.95-5.67a.751.751,0,0,0-.68-.82.765.765,0,0,0-.82.68c-.29,3.14-1.77,4.31-5.46,4.31H7c-4.07,0-5.51-1.44-5.51-5.51V7.01C1.49,2.94,2.93,1.5,7,1.5h.13c3.71,0,5.19,1.19,5.46,4.39a.758.758,0,0,0,1.51-.13C13.76,1.78,11.61,0,7.14,0H7.01C2.1,0,0,2.1,0,7.01v6.52C0,18.44,2.1,20.54,7.01,20.54Z" stroke="none"/>
        <path d="M 7.139999866485596 20.54000091552734 L 7.010000228881836 20.54000091552734 C 2.100000143051147 20.54000091552734 5.722045770539808e-08 18.44000053405762 5.722045770539808e-08 13.53000068664551 L 5.722045770539808e-08 7.010000228881836 C 5.722045770539808e-08 2.100000381469727 2.100000143051147 4.577636616431846e-07 7.010000228881836 4.577636616431846e-07 L 7.139999866485596 4.577636616431846e-07 C 11.60999965667725 4.577636616431846e-07 13.76000022888184 1.780000448226929 14.10000038146973 5.760000228881836 C 14.13000011444092 6.170000553131104 13.82999992370605 6.540000438690186 13.40999984741211 6.570000648498535 C 12.98998928070068 6.60999584197998 12.63999938964844 6.300000190734863 12.59000015258789 5.890000343322754 C 12.31999969482422 2.690000534057617 10.84000015258789 1.500000476837158 7.130000114440918 1.500000476837158 L 7 1.500000476837158 C 2.930000066757202 1.500000476837158 1.490000009536743 2.940000534057617 1.490000009536743 7.010000228881836 L 1.490000009536743 13.53000068664551 C 1.490000009536743 17.60000038146973 2.930000066757202 19.04000091552734 7 19.04000091552734 L 7.130000114440918 19.04000091552734 C 10.81999969482422 19.04000091552734 12.30000019073486 17.8700008392334 12.59000015258789 14.73000049591064 C 12.63000011444092 14.31999969482422 13.01000213623047 14.01000595092773 13.40999984741211 14.05000019073486 C 13.82999992370605 14.09000015258789 14.13000011444092 14.46000003814697 14.09000015258789 14.8700008392334 C 13.72000026702881 18.79000091552734 11.57999992370605 20.54000091552734 7.139999866485596 20.54000091552734 Z" stroke="none" fill="#ff6565"/>
      </g>
      <g id="Vector-2" data-name="Vector" transform="translate(8.25 11.25)" fill="#ff6565">
        <path d="M.75,1.5H12.13a.755.755,0,0,0,.75-.75A.755.755,0,0,0,12.13,0H.75A.755.755,0,0,0,0,.75.755.755,0,0,0,.75,1.5Z" stroke="none"/>
        <path d="M 12.13000011444092 1.5 L 0.7500000596046448 1.5 C 0.3400000631809235 1.5 5.722045770539808e-08 1.159999966621399 5.722045770539808e-08 0.75 C 5.722045770539808e-08 0.3400000035762787 0.3400000631809235 -1.110223024625157e-16 0.7500000596046448 -1.110223024625157e-16 L 12.13000011444092 -1.110223024625157e-16 C 12.53999996185303 -1.110223024625157e-16 12.88000011444092 0.3400000035762787 12.88000011444092 0.75 C 12.88000011444092 1.159999966621399 12.53999996185303 1.5 12.13000011444092 1.5 Z" stroke="none" fill="#ff6565"/>
      </g>
      <g id="Vector-3" data-name="Vector" transform="translate(17.403 7.902)" fill="#ff6565">
        <path d="M.748,8.2a.742.742,0,0,0,.53-.22l3.35-3.35a.754.754,0,0,0,0-1.06L1.278.218a.75.75,0,0,0-1.06,1.06L3.038,4.1.218,6.918a.754.754,0,0,0,0,1.06A.725.725,0,0,0,.748,8.2Z" stroke="none"/>
        <path d="M 0.7475003600120544 8.197500228881836 C 0.5575003623962402 8.197500228881836 0.3575003743171692 8.127499580383301 0.2175003737211227 7.977499961853027 C -0.07249962538480759 7.6875 -0.07249962538480759 7.207499980926514 0.2175003737211227 6.917500019073486 L 3.037500381469727 4.097499847412109 L 0.2175003737211227 1.277500033378601 C -0.07249962538480759 0.987500011920929 -0.07249962538480759 0.5074999928474426 0.2175003737211227 0.2175000011920929 C 0.5075003504753113 -0.07250000536441803 0.9875004291534424 -0.07250000536441803 1.27750039100647 0.2175000011920929 L 4.627500534057617 3.567500114440918 C 4.917500495910645 3.857500076293945 4.917500495910645 4.337500095367432 4.627500534057617 4.627500057220459 L 1.27750039100647 7.977499961853027 C 1.127500414848328 8.127499580383301 0.9375003576278687 8.197500228881836 0.7475003600120544 8.197500228881836 Z" stroke="none" fill="#ff6565"/>
      </g>
      <g id="Vector-4" data-name="Vector" fill="#fff" opacity="0">
        <path d="M 23.5 23.5 L 0.5 23.5 L 0.5 0.5 L 23.5 0.5 L 23.5 23.5 Z" stroke="none"/>
        <path d="M 1 1 L 1 23 L 23 23 L 23 1 L 1 1 M 0 0 L 24 0 L 24 24 L 0 24 L 0 0 Z" stroke="none" fill="#ff6565"/>
      </g>
    </g>
  </g>
</svg>
