<svg id="Logo_Side_menu" data-name="Logo / Side menu" xmlns="http://www.w3.org/2000/svg" width="162.655" height="24.322" viewBox="0 0 162.655 24.322">
  <g id="Group_2772" data-name="Group 2772">
    <rect id="Rectangle_2356" data-name="Rectangle 2356" width="29" height="24" fill="none"/>
    <g id="Group_151" data-name="Group 151" transform="translate(0.006 0)">
      <path id="Path_97" data-name="Path 97" d="M177.3,31.55h-3.938V48.639c0,2.5-.7,3.211-3.156,3.211q-4.021,0-8.042,0a5.632,5.632,0,0,1-1.273-.082,1.226,1.226,0,0,1-.809-2.093c.1-.137.2-.273.306-.4a1.967,1.967,0,0,1-2.569-2.894c-.008-.008-.019-.014-.027-.022-.35.388-.7.776-1.052,1.167-1.38,1.538-2.115,3.309-1.276,5.339.861,2.079,2.7,2.752,4.785,2.935.309.027.62.019.932.019q4.951,0,9.905,0c4.178,0,6.206-2.03,6.211-6.227C177.306,44,177.3,31.55,177.3,31.55Z" transform="translate(-148.399 -31.525)" fill="#fff"/>
      <path id="Path_98" data-name="Path 98" d="M145.221,40.521q-1.775,1.967-3.552,3.935c-.593.656-1.142,1.262-1.6,1.771-.005.005-.008.014-.014.019a1.968,1.968,0,0,0,2.495,2.987c.306-.38.645-.741.973-1.1,2.612-2.921,5.26-5.815,7.834-8.769a4.557,4.557,0,0,0,1.016-4.968c-.046-.109-.1-.216-.145-.317a4.584,4.584,0,0,0-4.208-2.53c-.306-.008-.609-.005-.915-.011q-2.636-.057-5.274-.071h-.216c-.945,0-1.888,0-2.834,0h-2.864c-.063,0-.126.014-.186.016s-.137.011-.208.016c-.238.022-.484.06-.719.1-.167.036-.339.068-.5.117l-.011,0h0l-.044.011c-.055.019-.1.046-.153.066a6.316,6.316,0,0,0-.839.366c-.115.06-.224.128-.331.2a5.162,5.162,0,0,0-.568.418c-.087.077-.183.145-.265.227a4.421,4.421,0,0,0-.6.73c-.066.1-.117.213-.178.32a5.136,5.136,0,0,0-.29.6c-.055.139-.107.281-.15.432a6.609,6.609,0,0,0-.164.694c-.027.142-.063.276-.082.426a8.4,8.4,0,0,0-.063,1.036v.333c-.016,5.834,0,18.207,0,18.207h3.91c0-.506-.008-12.141.005-17.494.005-2.15.787-2.924,2.959-2.935,2.757-.016,5.517-.022,8.274.005.874.008,1.924-.107,2.358.874a1.177,1.177,0,0,1-.09,1.164,6.41,6.41,0,0,1-.954,1.126C146.5,39.095,145.882,39.786,145.221,40.521Z" transform="translate(-130.553 -31.46)" fill="#fff"/>
    </g>
  </g>
  <g id="Group_2771" data-name="Group 2771" transform="translate(39.05 2.918)">
    <rect id="Rectangle_2357" data-name="Rectangle 2357" width="123.605" height="18.48" transform="translate(0 0)" fill="none"/>
    <g id="Group_2543" data-name="Group 2543" transform="translate(0.606 0)">
      <g id="Group_152" data-name="Group 152" transform="translate(89.59 0.036)">
        <path id="Path_99" data-name="Path 99" d="M574.707,43.877c-.018-.027-6.32-12.1-6.32-12.1H564.47V46.41h2.43V34.343c.012.018,6.3,12.1,6.3,12.1h3.917V31.78h-2.414v12.1Z" transform="translate(-564.47 -31.78)" fill="#fff"/>
      </g>
      <path id="Path_100" data-name="Path 100" d="M390.99,43.338a5.54,5.54,0,0,0-4.681-.261,6.177,6.177,0,0,0-1.315.794c-.088.064-.179.13-.27.191V43.038H382.38V57.8l2.442.009v-4.6a5.481,5.481,0,0,0,4.114,1.085,5.111,5.111,0,0,0,3.905-2.448,6.362,6.362,0,0,0,.776-4.665A5.3,5.3,0,0,0,390.99,43.338Zm-3.017,8.695a3.386,3.386,0,0,1-2.845-1.475,1.678,1.678,0,0,1-.309-.836c-.009-.279.006-2.466.073-2.814a2.287,2.287,0,0,1,1-1.285A3.4,3.4,0,0,1,387.866,45h.248a3.351,3.351,0,0,1,1.436.3,2.6,2.6,0,0,1,.894.621,4.382,4.382,0,0,1-.139,5.35,2.28,2.28,0,0,1-.651.439,3.38,3.38,0,0,1-1.463.321h-.218Z" transform="translate(-347.955 -39.343)" fill="#fff"/>
      <path id="Path_101" data-name="Path 101" d="M275.648,31.668c-1.524-.012-6.9,0-6.9,0V46.337h2.433V40.611H272.6c.854,0,1.709,0,2.563,0a5.06,5.06,0,0,0,3.087-.939,4.57,4.57,0,0,0,1.466-5.026A4.4,4.4,0,0,0,275.648,31.668Zm1.7,5.2a1.879,1.879,0,0,1-1.869,1.469c-1.036.012-2.072.009-3.117.006-.385,0-.788,0-1.175,0V33.858c.406,0,.827-.006,1.227-.009,1.069-.012,2.081-.021,3.111.024a1.922,1.922,0,0,1,1.5.806A2.543,2.543,0,0,1,277.345,36.872Z" transform="translate(-268.75 -31.662)" fill="#fff"/>
      <path id="Path_102" data-name="Path 102" d="M436.609,48.381c-.015-.324-.033-.66-.073-.991a4.8,4.8,0,0,0-4.544-4.62,5.556,5.556,0,0,0-5.383,2.084,5.811,5.811,0,0,0-1.121,3.6,6.076,6.076,0,0,0,1.148,3.893,5.246,5.246,0,0,0,4.323,2.039c.1,0,.2,0,.291,0a5.65,5.65,0,0,0,3.436-.994,3.954,3.954,0,0,0,1.721-3.117H434.2a2.279,2.279,0,0,1-1.951,1.76,6.768,6.768,0,0,1-1.5.076,2.958,2.958,0,0,1-2.063-1,2.684,2.684,0,0,1-.712-1.739h8.652v-.354c0-.1,0-.176,0-.254C436.622,48.633,436.616,48.508,436.609,48.381Zm-2.881-2.069a1.81,1.81,0,0,1,.424.912H428.06a2.39,2.39,0,0,1,.506-1,3.23,3.23,0,0,1,2.521-1.148h.045A3.277,3.277,0,0,1,433.728,46.312Z" transform="translate(-378.003 -39.369)" fill="#fff"/>
      <path id="Path_103" data-name="Path 103" d="M341.674,42.69h-.012a5.676,5.676,0,0,0-5.832,5.835,5.689,5.689,0,0,0,5.9,5.847h0a5.612,5.612,0,0,0,5.85-5.832,5.79,5.79,0,0,0-1.651-4.226A5.889,5.889,0,0,0,341.674,42.69Zm-.142,9.4a4.2,4.2,0,0,1-1.427-.333,3.02,3.02,0,0,1-1.687-2.115,4.624,4.624,0,0,1-.021-1.79,3.535,3.535,0,0,1,1.039-2.1A3.627,3.627,0,0,1,341.889,45a3.063,3.063,0,0,1,2.939,1.66c.751,1.642.712,4.175-1.127,5.078a4.079,4.079,0,0,1-1.821.37C341.762,52.106,341.647,52.1,341.531,52.094Z" transform="translate(-315.508 -39.349)" fill="#fff"/>
      <path id="Path_104" data-name="Path 104" d="M530.761,43.77l-3.22,8.595-.221-.009-3.148-8.586H521.7l4.469,12.27-.948,2.539,2.436.009s2.324-6.241,3.393-9.092l2.13-5.726Z" transform="translate(-445.068 -40.102)" fill="#fff"/>
      <path id="Path_105" data-name="Path 105" d="M498.1,44.718q0-2.3,0-4.6v-.657c0-.079.006-.155.012-.248h2.863V36.978h-2.887V34.03h-2.433V37H493.53v2.23h2.139v2.118c0,1.312,0,2.621,0,3.932.009,1.469.657,2.412,1.784,2.584a18.528,18.528,0,0,0,2.381.158c.342.009,1.23,0,1.23,0v-2.3h-1.975C498.259,45.721,498.1,45.563,498.1,44.718Z" transform="translate(-425.432 -33.313)" fill="#fff"/>
      <path id="Path_106" data-name="Path 106" d="M652.819,44.718q0-2.3,0-4.6v-.657c0-.079.006-.155.012-.248h2.863V36.978h-2.887V34.03h-2.433V37H648.25v2.23h2.139v2.118c0,1.312,0,2.621,0,3.932.009,1.469.657,2.412,1.784,2.584a18.526,18.526,0,0,0,2.381.158c.342.009,1.233,0,1.233,0v-2.3h-1.975C652.979,45.721,652.822,45.563,652.819,44.718Z" transform="translate(-533.279 -33.313)" fill="#fff"/>
      <path id="Path_107" data-name="Path 107" d="M476.439,43.821s-2.754-.367-4.066,1.036V43.812H470.08v10.97h2.36s.03-5.468.067-6.929a1.617,1.617,0,0,1,1.806-1.712l2.127-.012Z" transform="translate(-409.086 -40.107)" fill="#fff"/>
      <path id="Path_108" data-name="Path 108" d="M319.216,43.828s-3.251-.3-4.072,1.03V43.78H312.86v11h2.43s-.048-5.447,0-6.889a1.811,1.811,0,0,1,.53-1.36c.812-.7,3.381-.4,3.381-.4Z" transform="translate(-299.497 -40.109)" fill="#fff"/>
      <g id="Group_154" data-name="Group 154" transform="translate(103.925 3.821)">
        <g id="Group_153" data-name="Group 153" transform="translate(0 4.224)">
          <path id="Path_109" data-name="Path 109" d="M620,61.122a2.149,2.149,0,0,1-1.839,1.66,6.2,6.2,0,0,1-1.412.07,2.794,2.794,0,0,1-1.945-.945,2.739,2.739,0,0,1-.524-.863,3.249,3.249,0,0,1-.155-1.106c-.006-.4.015-.788.045-1.182a4.574,4.574,0,0,1,.064-.536l-2.414.563c-.015.136-.03.351-.033.615a5.932,5.932,0,0,0,1.082,3.672,4.939,4.939,0,0,0,4.078,1.924c.094,0,.185,0,.276,0a5.331,5.331,0,0,0,3.242-.939,3.717,3.717,0,0,0,1.621-2.939H620Z" transform="translate(-611.788 -58.22)" fill="#fff"/>
        </g>
        <path id="Path_110" data-name="Path 110" d="M622.736,49.976c-.006-.118-.012-.239-.018-.357-.015-.306-.03-.624-.07-.936a4.52,4.52,0,0,0-4.287-4.356,5.751,5.751,0,0,0-3.554.612,5.057,5.057,0,0,0-1.524,1.351,5.22,5.22,0,0,0-.863,1.739c2.221-.742,3.829-1.281,4.156-1.394.021-.006.085-.027.167-.051a2.643,2.643,0,0,1,.763-.088h.042A3.084,3.084,0,0,1,620,47.661a1.71,1.71,0,0,1,.4.86h-2.851c-.276,0-.588-.021-1.039,0-.139.006-.251.015-.327.021-.006.666-.012,1.33-.018,2l6.571.009v-.336A2.082,2.082,0,0,0,622.736,49.976Z" transform="translate(-612.229 -44.276)" fill="#fff"/>
        <path id="Path_111" data-name="Path 111" d="M627.81,51.68" transform="translate(-622.956 -49.437)" fill="#fff"/>
      </g>
    </g>
  </g>
</svg>
