<svg id="Logo-Side-menu" xmlns="http://www.w3.org/2000/svg" width="29" height="24.322" viewBox="0 0 29 24.322">
  <g id="Group_2772" data-name="Group 2772">
    <rect id="Rectangle_2356" data-name="Rectangle 2356" width="29" height="24" fill="none"/>
    <g id="Group_151" data-name="Group 151" transform="translate(0.006)">
      <path id="Path_97" data-name="Path 97" d="M177.3,31.55h-3.938V48.639c0,2.5-.7,3.211-3.156,3.211h-8.042a5.632,5.632,0,0,1-1.273-.082,1.226,1.226,0,0,1-.809-2.093c.1-.137.2-.273.306-.4a1.967,1.967,0,0,1-2.569-2.894c-.008-.008-.019-.014-.027-.022l-1.052,1.167c-1.38,1.538-2.115,3.309-1.276,5.339.861,2.079,2.7,2.752,4.785,2.935.309.027.62.019.932.019h9.9c4.178,0,6.206-2.03,6.211-6.227C177.306,44,177.3,31.55,177.3,31.55Z" transform="translate(-148.399 -31.525)" fill="#fff"/>
      <path id="Path_98" data-name="Path 98" d="M145.221,40.521l-3.552,3.935c-.593.656-1.142,1.262-1.6,1.771-.005.005-.008.014-.014.019a1.968,1.968,0,0,0,2.5,2.987c.306-.38.645-.741.973-1.1,2.612-2.921,5.26-5.815,7.834-8.769a4.557,4.557,0,0,0,1.016-4.968c-.046-.109-.1-.216-.145-.317a4.584,4.584,0,0,0-4.208-2.53c-.306-.008-.609,0-.915-.011q-2.636-.057-5.274-.071h-5.914c-.063,0-.126.014-.186.016s-.137.011-.208.016c-.238.022-.484.06-.719.1-.167.036-.339.068-.5.117h-.011l-.044.011c-.055.019-.1.046-.153.066a6.315,6.315,0,0,0-.839.366,3.463,3.463,0,0,0-.331.2,5.162,5.162,0,0,0-.568.418c-.087.077-.183.145-.265.227a4.42,4.42,0,0,0-.6.73c-.066.1-.117.213-.178.32a5.137,5.137,0,0,0-.29.6,4.569,4.569,0,0,0-.15.432,6.609,6.609,0,0,0-.164.694c-.027.142-.063.276-.082.426a8.4,8.4,0,0,0-.063,1.036v.333c-.016,5.834,0,18.207,0,18.207h3.91c0-.506-.008-12.141.005-17.494.005-2.15.787-2.924,2.959-2.935,2.757-.016,5.517-.022,8.274.005.874.008,1.924-.107,2.358.874a1.177,1.177,0,0,1-.09,1.164,6.409,6.409,0,0,1-.954,1.126C146.5,39.1,145.882,39.786,145.221,40.521Z" transform="translate(-130.553 -31.46)" fill="#fff"/>
    </g>
  </g>
</svg>
