<svg xmlns="http://www.w3.org/2000/svg" xmlns:xlink="http://www.w3.org/1999/xlink" width="16" height="16" viewBox="0 0 16 16">
  <defs>
    <clipPath id="clip-path">
      <rect id="Rectangle_6901" data-name="Rectangle 6901" width="16" height="16" transform="translate(3466 13267)" fill="#fff" stroke="#292d32" stroke-width="1"/>
    </clipPath>
  </defs>
  <g id="Mask_Group_674" data-name="Mask Group 674" transform="translate(-3466 -13267)" clip-path="url(#clip-path)">
    <g id="vuesax_linear_calendar-edit" data-name="vuesax/linear/calendar-edit" transform="translate(3466 13267)">
      <g id="calendar-edit">
        <path id="Vector" d="M0,0V2" transform="translate(5.333 1.333)" fill="none" stroke="#292d32" stroke-linecap="round" stroke-linejoin="round" stroke-width="1"/>
        <path id="Vector-2" data-name="Vector" d="M0,0V2" transform="translate(10.667 1.333)" fill="none" stroke="#292d32" stroke-linecap="round" stroke-linejoin="round" stroke-width="1"/>
        <path id="Vector-3" data-name="Vector" d="M0,0H11.333" transform="translate(2.333 6.06)" fill="none" stroke="#292d32" stroke-linecap="round" stroke-linejoin="round" stroke-width="1"/>
        <g id="Group">
          <path id="Vector-4" data-name="Vector" d="M2.693.382.333,2.742a.821.821,0,0,0-.2.393l-.127.9a.423.423,0,0,0,.507.507l.9-.127a.793.793,0,0,0,.393-.2l2.36-2.36a.91.91,0,0,0,0-1.48A.907.907,0,0,0,2.693.382Z" transform="translate(10.114 10.131)" fill="none" stroke="#292d32" stroke-linecap="round" stroke-linejoin="round" stroke-width="1"/>
          <path id="Vector-5" data-name="Vector" d="M0,0A2.123,2.123,0,0,0,1.48,1.48" transform="translate(12.467 10.853)" fill="none" stroke="#292d32" stroke-linecap="round" stroke-linejoin="round" stroke-width="1"/>
        </g>
        <path id="Vector-6" data-name="Vector" d="M6,12.333H3.333A2.99,2.99,0,0,1,0,9V3.333A2.99,2.99,0,0,1,3.333,0H8.667A2.99,2.99,0,0,1,12,3.333V5.667" transform="translate(2 2.333)" fill="none" stroke="#292d32" stroke-linecap="round" stroke-linejoin="round" stroke-width="1"/>
        <path id="Vector-7" data-name="Vector" d="M0,0H16V16H0Z" fill="none" opacity="0"/>
        <path id="Vector-8" data-name="Vector" d="M.33.333h0" transform="translate(7.667 8.8)" fill="none" stroke="#292d32" stroke-linecap="round" stroke-linejoin="round" stroke-width="1.333"/>
        <path id="Vector-9" data-name="Vector" d="M.33.333h0" transform="translate(5.2 8.8)" fill="none" stroke="#292d32" stroke-linecap="round" stroke-linejoin="round" stroke-width="1.333"/>
        <path id="Vector-10" data-name="Vector" d="M.33.333h0" transform="translate(5.2 10.8)" fill="none" stroke="#292d32" stroke-linecap="round" stroke-linejoin="round" stroke-width="1.333"/>
      </g>
    </g>
  </g>
</svg>
