<svg xmlns="http://www.w3.org/2000/svg" xmlns:xlink="http://www.w3.org/1999/xlink" width="16" height="16" viewBox="0 0 16 16">
  <defs>
    <clipPath id="clip-path">
      <rect id="Rectangle_7002" data-name="Rectangle 7002" width="16" height="16" transform="translate(-7243 -156)" fill="#fff"/>
    </clipPath>
  </defs>
  <g id="Mask_Group_678" data-name="Mask Group 678" transform="translate(7243 156)" clip-path="url(#clip-path)">
    <g id="vuesax_bold_maximize-4" data-name="vuesax/bold/maximize-4" transform="translate(-7243 -156)">
      <g id="maximize-4">
        <path id="Vector" d="M9.46,0H3.873A3.558,3.558,0,0,0,0,3.873v5.58a3.56,3.56,0,0,0,3.873,3.88h5.58A3.558,3.558,0,0,0,13.327,9.46V3.873A3.55,3.55,0,0,0,9.46,0ZM6.353,7.687l-2.48,2.48h1.46a.5.5,0,1,1,0,1H2.667a.478.478,0,0,1-.193-.04.521.521,0,0,1-.273-.273.579.579,0,0,1-.033-.187V8a.5.5,0,0,1,1,0V9.46l2.48-2.48a.5.5,0,0,1,.707.707Zm4.813-2.353a.5.5,0,1,1-1,0V3.873l-2.48,2.48a.5.5,0,0,1-.707-.707l2.48-2.48H8a.5.5,0,0,1,0-1h2.667a.5.5,0,0,1,.193.04.521.521,0,0,1,.273.273.579.579,0,0,1,.033.187Z" transform="translate(1.333 1.333)" fill="#4881ff"/>
        <path id="Vector-2" data-name="Vector" d="M0,0H16V16H0Z" transform="translate(16 16) rotate(180)" fill="none" opacity="0"/>
      </g>
    </g>
  </g>
</svg>
