<svg xmlns="http://www.w3.org/2000/svg" xmlns:xlink="http://www.w3.org/1999/xlink" width="40" height="40" viewBox="0 0 40 40">
  <defs>
    <clipPath id="clip-path">
      <rect id="Rectangle_5167" data-name="Rectangle 5167" width="40" height="40" transform="translate(-152 -13552)" fill="none"/>
    </clipPath>
  </defs>
  <g id="Logo" transform="translate(152 13552)" clip-path="url(#clip-path)">
    <g id="noroeste-futebol-clube-de-caxias-do-sul-rs" transform="translate(-152 -13552)">
      <path id="Path_7164" data-name="Path 7164" d="M0,0H40V40H0Z" fill="#fff" fill-rule="evenodd"/>
      <path id="Path_7165" data-name="Path 7165" d="M3.131,6.423A34.606,34.606,0,0,1,20,1.765,34.6,34.6,0,0,1,36.869,6.423l.259.143-.184.232c-3.367,4.247-3.088,7.18-2.792,10.282a20.47,20.47,0,0,1,.079,4.556v.007a18.492,18.492,0,0,1-4.393,9.6A28.336,28.336,0,0,1,20.1,38.188l-.1.047-.1-.047a28.043,28.043,0,0,1-9.725-6.95,18.833,18.833,0,0,1-4.4-9.593l0-.012A21.365,21.365,0,0,1,5.86,17.16c.294-3.131.571-6.078-2.805-10.363l-.182-.231.259-.143ZM20,2.263A34.006,34.006,0,0,0,3.623,6.72C6.928,11.032,6.648,14.026,6.349,17.2a20.969,20.969,0,0,0-.092,4.376,18.34,18.34,0,0,0,4.289,9.331A27.466,27.466,0,0,0,20,37.687a27.762,27.762,0,0,0,9.466-6.777,18,18,0,0,0,4.277-9.334,20.055,20.055,0,0,0-.079-4.45c-.3-3.149-.584-6.131,2.713-10.407A34,34,0,0,0,20,2.263Z" fill="#323991"/>
      <path id="Path_7166" data-name="Path 7166" d="M5.314,7.072c9.969-5.081,19.158-4.949,29.44,0-4.137,6.233-1.684,9.483-2.24,14.268-.932,6.574-5.367,11.765-12.562,15.2C12.732,33.1,8.475,27.913,7.49,21.34c-.5-4.784,1.743-8.3-2.176-14.268Z" fill="#323991" fill-rule="evenodd"/>
      <path id="Path_7167" data-name="Path 7167" d="M11.159,8.876h4.964l8.982,13.585V10.478H23.628v-1.6h5.259v1.6H27.351v14.95h1.536v1.661H23.628L14.764,13.207V25.428h1.359v1.661H11.159V25.428h1.418V10.478H11.159v-1.6Z" fill="#fff" fill-rule="evenodd"/>
    </g>
  </g>
</svg>
